<svg width="48" height="48" viewBox="-8 -8 64 64" fill="none" xmlns="http://www.w3.org/2000/svg">
<path fill-rule="evenodd" clip-rule="evenodd" d="M24 12.001C24.8774 12.001 25.7367 12.2924 26.4277 12.8398L26.4346 12.8438L26.4434 12.8516L26.4521 12.8584L34.6191 19.4902C35.0435 19.8318 35.3901 20.2604 35.6309 20.752C35.8732 21.247 35.999 21.7902 35.999 22.3418V32.29C35.9989 33.3006 35.5755 34.2526 34.8486 34.9414C34.1242 35.6277 33.1577 35.9989 32.167 35.999H15.834C14.8431 35.999 13.876 35.6278 13.1514 34.9414C12.4245 34.2526 12.0011 33.3006 12.001 32.29V22.3418C12.001 21.7901 12.1268 21.247 12.3691 20.752C12.6102 20.2599 12.9583 19.8298 13.3828 19.4883L21.5479 12.8584L21.5566 12.8516L21.5654 12.8438C22.2575 12.2931 23.12 12.001 24 12.001ZM24 13.2002C23.3819 13.2002 22.7821 13.4075 22.3066 13.7881L22.3037 13.79L14.1377 20.4209L14.1357 20.4229C13.8448 20.6568 13.6092 20.9497 13.4473 21.2803C13.285 21.6118 13.2002 21.9739 13.2002 22.3418V32.2891C13.2002 32.9604 13.4822 33.601 13.9775 34.0703C14.4722 34.5388 15.1404 34.7998 15.834 34.7998H20.4004V25.5C20.4004 24.3402 21.3402 23.4004 22.5 23.4004H25.5C26.6598 23.4004 27.5996 24.3402 27.5996 25.5V34.7998H32.167C32.8604 34.7997 33.5279 34.5387 34.0225 34.0703C34.5177 33.6011 34.7997 32.9612 34.7998 32.29V22.3418C34.7998 21.9739 34.715 21.6118 34.5527 21.2803C34.3906 20.9493 34.1563 20.6568 33.8652 20.4229L33.8623 20.4209L25.6963 13.79L25.6934 13.7881C25.2179 13.4075 24.6181 13.2002 24 13.2002ZM22.5 24.5996C22.0029 24.5996 21.5996 25.0029 21.5996 25.5V34.7998H26.4004V25.5C26.4004 25.0029 25.9971 24.5996 25.5 24.5996H22.5Z" fill="currentColor"/>
</svg>
