<svg width="64" height="48" viewBox="0 0 64 48" fill="none" xmlns="http://www.w3.org/2000/svg">
<path fill-rule="evenodd" clip-rule="evenodd" d="M22.1963 12.5811C22.424 12.5804 22.6481 12.6389 22.8457 12.752L29.8262 16.7422H37.833C39.2298 16.7422 40.5699 17.2975 41.5576 18.2852C42.5451 19.2728 43.0995 20.6122 43.0996 22.0088C43.0996 23.4056 42.5453 24.7457 41.5576 25.7334C40.6945 26.5965 39.5624 27.1284 38.3584 27.249L37.5439 32.9443L37.543 32.9502C37.4269 33.7078 37.0167 34.3888 36.4014 34.8457C35.7857 35.3026 35.0139 35.4981 34.2549 35.3896C33.4961 35.2811 32.8107 34.8775 32.3477 34.2666C31.8847 33.6556 31.6815 32.8869 31.7822 32.127L31.7832 32.1211L32.4746 27.2754H29.8262L22.8457 31.2646C22.6481 31.3777 22.4239 31.4371 22.1963 31.4365C21.9689 31.4359 21.7456 31.3756 21.5488 31.2617C21.3518 31.1476 21.188 30.9833 21.0742 30.7861C20.9889 30.6383 20.9335 30.4757 20.9111 30.3076L20.9004 30.1377V13.8809C20.9004 13.6533 20.9598 13.4297 21.0732 13.2324C21.1869 13.035 21.3508 12.8702 21.5479 12.7559C21.7448 12.6417 21.9686 12.5817 22.1963 12.5811ZM33.6875 27.2754L32.9707 32.291C32.9135 32.7354 33.033 33.1847 33.3037 33.542C33.5758 33.901 33.9789 34.1384 34.4248 34.2021C34.8707 34.2658 35.3238 34.1511 35.6855 33.8828C36.0022 33.6478 36.2265 33.3114 36.3232 32.9326L36.3574 32.7686L37.1416 27.2754H33.6875ZM22.1494 13.7939C22.1343 13.8027 22.122 13.8159 22.1133 13.8311L22.0996 13.8809V30.1377C22.0998 30.1548 22.1047 30.1717 22.1133 30.1865C22.1219 30.2015 22.1345 30.2139 22.1494 30.2227C22.1646 30.2314 22.1827 30.2363 22.2002 30.2363C22.2176 30.2363 22.2349 30.2323 22.25 30.2236L29.0664 26.3281V17.6895L22.25 13.7939L22.1992 13.7803C22.1819 13.7804 22.1644 13.7852 22.1494 13.7939ZM30.2666 17.9424V26.0762H37.833L38.0352 26.0703C39.0402 26.0204 39.994 25.5997 40.709 24.8848C41.4716 24.1221 41.9004 23.0873 41.9004 22.0088C41.9003 20.9304 41.4715 19.8963 40.709 19.1338C39.9463 18.3711 38.9116 17.9424 37.833 17.9424H30.2666Z" fill="currentColor"/>
</svg>
