<svg width="64" height="48" viewBox="0 0 64 48" fill="none" xmlns="http://www.w3.org/2000/svg">
<path fill-rule="evenodd" clip-rule="evenodd" d="M31.0527 19.127C31.3914 18.2685 32.6074 18.2687 32.9463 19.127L33.9854 21.7627L36.6221 22.8027L36.7734 22.876C37.431 23.2622 37.4309 24.2368 36.7734 24.623L36.6221 24.6963L33.9854 25.7354L32.9463 28.3721C32.6289 29.1774 31.5398 29.228 31.126 28.5234L31.0527 28.3721L30.0127 25.7354L27.377 24.6963C26.5187 24.3574 26.5185 23.1414 27.377 22.8027L30.0127 21.7627L31.0527 19.127ZM31.1006 22.2773C31.0493 22.4073 30.9719 22.5254 30.873 22.624C30.7741 22.7227 30.6555 22.8005 30.5254 22.8516L30.5244 22.8506L28.2471 23.749L30.5273 24.6484L30.623 24.6924C30.7153 24.7403 30.8003 24.8022 30.874 24.876C30.9726 24.9748 31.0505 25.0937 31.1016 25.2236L31.999 27.501L32.8984 25.2217C32.9497 25.0919 33.0272 24.9736 33.126 24.875C33.2246 24.7766 33.343 24.6995 33.4727 24.6484L35.75 23.749L33.4717 22.8506C33.3419 22.7993 33.2236 22.7218 33.125 22.623C33.0266 22.5244 32.9494 22.4061 32.8984 22.2764L31.999 19.998L31.1006 22.2773Z" fill="currentColor"/>
<path fill-rule="evenodd" clip-rule="evenodd" d="M40.7363 15.583C41.0234 15.583 41.308 15.6427 41.5732 15.7578C41.8383 15.8729 42.0793 16.0414 42.2822 16.2539L45.6045 19.7373C45.8577 20.003 45.9998 20.3637 46 20.7393L45.9932 20.8799C45.9624 21.2042 45.8261 21.5096 45.6045 21.7422L32.9561 35.001C32.7024 35.2668 32.3586 35.416 32 35.416L31.8662 35.4092C31.6009 35.3815 31.3488 35.2728 31.1426 35.0957L31.0439 35.001L18.3955 21.7422C18.1422 21.4763 18 21.115 18 20.7393C18.0002 20.3637 18.1423 20.003 18.3955 19.7373L21.7178 16.2539C21.8699 16.0945 22.0434 15.9594 22.2324 15.8535L22.4268 15.7578C22.6257 15.6715 22.8354 15.6158 23.0488 15.5938L23.2637 15.583H40.7363ZM23.2637 16.7832C23.1423 16.7832 23.0198 16.8083 22.9043 16.8584C22.7889 16.9085 22.6801 16.9835 22.5859 17.082L19.2646 20.5654C19.2295 20.6023 19.2004 20.6641 19.2002 20.7393C19.2002 20.8147 19.2295 20.8771 19.2646 20.9141L31.9121 34.1729L31.96 34.208C31.9752 34.2146 31.9891 34.2168 32 34.2168C32.0216 34.2168 32.0545 34.2078 32.0879 34.1729L44.7354 20.9141C44.7705 20.8771 44.7998 20.8147 44.7998 20.7393C44.7996 20.6641 44.7705 20.6023 44.7354 20.5654L41.4141 17.082C41.3199 16.9835 41.211 16.9085 41.0957 16.8584C40.9802 16.8083 40.8577 16.7832 40.7363 16.7832H23.2637Z" fill="currentColor"/>
</svg>
