<svg width="64" height="48" viewBox="0 0 64 48" fill="none" xmlns="http://www.w3.org/2000/svg">
<path fill-rule="evenodd" clip-rule="evenodd" d="M42 25.6504C42.6075 25.6504 43.0996 26.1425 43.0996 26.75V31.75C43.0996 32.3575 42.6075 32.8496 42 32.8496H22C21.3925 32.8496 20.9004 32.3575 20.9004 31.75V26.75C20.9004 26.1425 21.3925 25.6504 22 25.6504H42ZM22.0996 31.6504H26.9004V26.8496H22.0996V31.6504ZM28.0996 31.6504H41.9004V26.8496H28.0996V31.6504Z" fill="currentColor"/>
<path fill-rule="evenodd" clip-rule="evenodd" d="M42 15.1504C42.6075 15.1504 43.0996 15.6425 43.0996 16.25V21.25C43.0996 21.8575 42.6075 22.3496 42 22.3496H22C21.3925 22.3496 20.9004 21.8575 20.9004 21.25V16.25C20.9004 15.6425 21.3925 15.1504 22 15.1504H42ZM37.0996 21.1504H41.9004V16.3496H37.0996V21.1504ZM22.0996 21.1504H35.9004V16.3496H22.0996V21.1504Z" fill="currentColor"/>
</svg>
