<svg width="64" height="48" viewBox="0 0 64 48" fill="none" xmlns="http://www.w3.org/2000/svg">
<path fill-rule="evenodd" clip-rule="evenodd" d="M32.0049 12.9004C32.3363 12.9004 32.6045 13.1686 32.6045 13.5V14.8379C37.1911 15.1367 40.8566 18.8041 41.1523 23.3916H42.498C42.8294 23.3916 43.0977 23.6598 43.0977 23.9912C43.0977 24.3226 42.8294 24.5908 42.498 24.5908H41.1523C40.8559 29.1776 37.1906 32.8437 32.6045 33.1426V34.499C32.6045 34.8304 32.3362 35.0986 32.0049 35.0986C31.6735 35.0986 31.4053 34.8304 31.4053 34.499V33.1436C26.8139 32.85 23.1434 29.1814 22.8467 24.5908H21.5C21.1686 24.5908 20.9004 24.3226 20.9004 23.9912C20.9004 23.6598 21.1686 23.3916 21.5 23.3916H22.8467C23.1426 18.8003 26.8133 15.1304 31.4053 14.8369V13.5C31.4053 13.1686 31.6735 12.9004 32.0049 12.9004ZM32.6045 20.8496C32.6045 21.181 32.3362 21.4492 32.0049 21.4492C31.6735 21.4492 31.4053 21.181 31.4053 20.8496V16.04C27.4764 16.3295 24.3406 19.4634 24.0488 23.3916H28.8496C29.181 23.3916 29.4492 23.6598 29.4492 23.9912C29.4492 24.3226 29.181 24.5908 28.8496 24.5908H24.0498C24.3424 28.5182 27.477 31.65 31.4053 31.9395V27.1494C31.4053 26.818 31.6735 26.5498 32.0049 26.5498C32.3363 26.5498 32.6045 26.818 32.6045 27.1494V31.9395C36.5275 31.6448 39.656 28.5144 39.9482 24.5908H35.1484C34.8171 24.5908 34.5488 24.3226 34.5488 23.9912C34.5488 23.6598 34.8171 23.3916 35.1484 23.3916H39.9492C39.6577 19.4671 36.5281 16.3347 32.6045 16.04V20.8496Z" fill="currentColor"/>
</svg>
