<svg width="64" height="48" viewBox="0 0 64 48" fill="none" xmlns="http://www.w3.org/2000/svg">
<path fill-rule="evenodd" clip-rule="evenodd" d="M28.4639 14C31.2049 14.0003 33.4275 16.2219 33.4277 18.9629C33.4277 20.8145 32.412 22.427 30.9092 23.2803C35.0956 24.314 38.2002 28.0938 38.2002 32.5996C38.2002 32.9308 37.9317 33.199 37.6006 33.1992C37.2692 33.1992 37.001 32.931 37.001 32.5996C37.001 27.9606 33.2396 24.1995 28.6006 24.1992C23.9614 24.1992 20.2002 27.9604 20.2002 32.5996C20.2002 32.9308 19.9317 33.199 19.6006 33.1992C19.2692 33.1992 19 32.931 19 32.5996C19 28.1617 22.0118 24.4284 26.1025 23.3291C24.553 22.4892 23.501 20.8493 23.501 18.9629C23.5012 16.2218 25.7228 14.0002 28.4639 14ZM28.4639 15.1992C26.3855 15.1994 24.7004 16.8846 24.7002 18.9629C24.7002 21.0414 26.3854 22.7264 28.4639 22.7266C30.5422 22.7263 32.2275 21.0413 32.2275 18.9629C32.2273 16.8846 30.5421 15.1995 28.4639 15.1992Z" fill="currentColor"/>
<path d="M37.8828 18.5C40.0215 18.5 41.7557 20.2334 41.7559 22.3721C41.7559 23.692 41.0944 24.8564 40.0859 25.5557C43.1214 26.4594 45.335 29.2704 45.335 32.5996C45.335 32.931 45.0667 33.1992 44.7354 33.1992C44.404 33.1992 44.1357 32.931 44.1357 32.5996C44.1357 29.2031 41.3819 26.4492 37.9854 26.4492C37.7093 26.4492 37.479 26.2625 37.4092 26.0088C37.3316 25.9077 37.2833 25.7828 37.2832 25.6455C37.2832 25.3141 37.5514 25.0449 37.8828 25.0449C39.3589 25.0449 40.5557 23.8482 40.5557 22.3721C40.5555 20.8961 39.3588 19.6993 37.8828 19.6992C37.3918 19.6992 36.9334 19.8316 36.5391 20.0615C36.2528 20.2285 35.8847 20.1319 35.7178 19.8457C35.5509 19.5596 35.6478 19.1925 35.9336 19.0254C36.5065 18.6913 37.1735 18.5 37.8828 18.5Z" fill="currentColor"/>
</svg>
