<svg width="64" height="48" viewBox="0 0 64 48" fill="none" xmlns="http://www.w3.org/2000/svg">
<path fill-rule="evenodd" clip-rule="evenodd" d="M32 12.9004C34.963 12.9004 37.6746 13.4326 39.668 14.3184C40.6639 14.7609 41.5071 15.3037 42.1094 15.9365C42.7145 16.5725 43.0996 17.3273 43.0996 18.167V29.833C43.0996 30.6727 42.7145 31.4275 42.1094 32.0635C41.5071 32.6963 40.6639 33.2391 39.668 33.6816C37.6746 34.5674 34.963 35.0996 32 35.0996C29.037 35.0996 26.3254 34.5674 24.332 33.6816C23.3361 33.2391 22.4929 32.6963 21.8906 32.0635C21.2855 31.4275 20.9004 30.6727 20.9004 29.833V18.167C20.9004 17.3273 21.2855 16.5725 21.8906 15.9365C22.4929 15.3037 23.3361 14.7609 24.332 14.3184C26.3254 13.4326 29.037 12.9004 32 12.9004ZM41.9004 26.4355C41.3182 26.9808 40.554 27.4549 39.668 27.8486C37.6746 28.7344 34.9629 29.2666 32 29.2666C29.0371 29.2666 26.3254 28.7344 24.332 27.8486C23.446 27.4549 22.6818 26.9808 22.0996 26.4355V29.833C22.0996 30.2823 22.3024 30.7557 22.7598 31.2363C23.2202 31.7202 23.9151 32.1831 24.8193 32.585C26.6264 33.3879 29.1647 33.9004 32 33.9004C34.8353 33.9004 37.3736 33.3879 39.1807 32.585C40.0849 32.1831 40.7798 31.7202 41.2402 31.2363C41.6976 30.7557 41.9004 30.2823 41.9004 29.833V26.4355ZM41.9004 20.6016C41.3182 21.1469 40.5542 21.6218 39.668 22.0156C37.6746 22.9013 34.9629 23.4336 32 23.4336C29.0371 23.4336 26.3254 22.9013 24.332 22.0156C23.4458 21.6218 22.6818 21.1469 22.0996 20.6016V24C22.0996 24.4494 22.3023 24.9226 22.7598 25.4033C23.2202 25.8872 23.9151 26.3501 24.8193 26.752C26.6264 27.5549 29.1647 28.0664 32 28.0664C34.8353 28.0664 37.3736 27.5549 39.1807 26.752C40.0849 26.3501 40.7798 25.8872 41.2402 25.4033C41.6977 24.9226 41.9004 24.4494 41.9004 24V20.6016ZM32 14.0996C29.1647 14.0996 26.6264 14.6121 24.8193 15.415C23.9151 15.8169 23.2202 16.2798 22.7598 16.7637C22.3024 17.2443 22.0996 17.7177 22.0996 18.167C22.0997 18.6163 22.3024 19.0897 22.7598 19.5703C23.2202 20.0541 23.9152 20.5172 24.8193 20.9189C26.6264 21.7219 29.1648 22.2334 32 22.2334C34.8352 22.2334 37.3736 21.7219 39.1807 20.9189C40.0848 20.5172 40.7798 20.0541 41.2402 19.5703C41.6976 19.0897 41.9003 18.6163 41.9004 18.167C41.9004 17.7177 41.6976 17.2443 41.2402 16.7637C40.7798 16.2798 40.0849 15.8169 39.1807 15.415C37.3736 14.6121 34.8353 14.0996 32 14.0996Z" fill="currentColor"/>
</svg>
