<svg width="64" height="48" viewBox="0 0 64 48" fill="none" xmlns="http://www.w3.org/2000/svg">
<path fill-rule="evenodd" clip-rule="evenodd" d="M38.4406 26.9717C38.7323 26.4757 39.4671 26.4759 39.759 26.9717L39.8146 27.0859L40.4641 28.7344L42.1135 29.3848L42.2277 29.4404C42.7238 29.7322 42.7238 30.467 42.2277 30.7588L42.1135 30.8144L40.4641 31.4639L39.8146 33.1133C39.5749 33.7211 38.7533 33.7592 38.4406 33.2275L38.3849 33.1133L37.7346 31.4639L36.0861 30.8144C35.4381 30.5585 35.438 29.6406 36.0861 29.3848L37.7346 28.7344L38.3849 27.0859L38.4406 26.9717ZM38.6281 29.1953C38.5894 29.2934 38.5309 29.3825 38.4562 29.457C38.3815 29.5315 38.2918 29.5904 38.1935 29.6289L38.1926 29.6279L36.9992 30.0986L38.1955 30.5713C38.269 30.6003 38.3376 30.6407 38.3986 30.6904L38.4572 30.7432L38.5099 30.8017C38.5596 30.8629 38.6002 30.9323 38.6291 31.0058L39.0988 32.1992L39.5715 31.0039L39.6037 30.9326C39.64 30.8625 39.6872 30.7982 39.7433 30.7422C39.7993 30.6863 39.8638 30.6397 39.9338 30.6035L40.006 30.5703L41.1994 30.0996L40.0041 29.6279C39.9061 29.5892 39.8168 29.5306 39.7424 29.456C39.668 29.3814 39.609 29.2915 39.5705 29.1933L39.0998 27.999L38.6281 29.1953Z" fill="currentColor"/>
<path fill-rule="evenodd" clip-rule="evenodd" d="M29.2922 14.8896C29.7597 13.7039 31.4395 13.7033 31.9074 14.8887L33.968 20.1142C33.9782 20.1403 33.9941 20.1656 34.0139 20.1855C34.0337 20.2054 34.058 20.2211 34.0842 20.2314L39.3098 22.292C40.496 22.7595 40.496 24.4388 39.3098 24.9062L39.3107 24.9072L34.0851 26.9678C34.059 26.978 34.0338 26.9939 34.0139 27.0137C33.9939 27.0335 33.9783 27.0578 33.968 27.084L31.9074 32.3096C31.44 33.4957 29.7599 33.4964 29.2922 32.3105L27.2316 27.0849C27.2214 27.0589 27.2055 27.0335 27.1857 27.0137C27.1659 26.9938 27.1415 26.9781 27.1154 26.9678L21.8898 24.9072C20.704 24.4397 20.7031 22.7597 21.8889 22.292L27.1144 20.2314C27.1406 20.2212 27.1658 20.2054 27.1857 20.1855C27.2057 20.1656 27.2213 20.1414 27.2316 20.1152L29.2922 14.8896ZM30.7902 15.3291C30.7218 15.157 30.4777 15.1569 30.4094 15.3291L28.3478 20.5557C28.277 20.7351 28.17 20.8988 28.0334 21.0351C27.8968 21.1714 27.7335 21.2782 27.5539 21.3486L27.5529 21.3476L22.3293 23.4092C22.1569 23.4774 22.1571 23.7216 22.3293 23.79L27.5558 25.8516C27.7352 25.9224 27.8991 26.0295 28.0353 26.166C28.1715 26.3025 28.2784 26.4661 28.3488 26.6455L30.4094 31.8701L30.4426 31.9267C30.5361 32.0398 30.7305 32.021 30.7902 31.8701L32.8517 26.6435C32.9226 26.4641 33.0296 26.3003 33.1662 26.1641C33.3027 26.0279 33.4662 25.921 33.6457 25.8506L38.8703 23.79L38.9269 23.7568C39.04 23.6632 39.0212 23.4689 38.8703 23.4092L33.6437 21.3476C33.4643 21.2768 33.3005 21.1697 33.1642 21.0332C33.0281 20.8967 32.9212 20.7332 32.8508 20.5537L30.7902 15.3291Z" fill="currentColor"/>
</svg>
