<svg width="64" height="48" viewBox="0 0 64 48" fill="none" xmlns="http://www.w3.org/2000/svg">
<path d="M38.0002 34.7804C38.3315 34.7804 38.5998 35.0532 38.5998 35.3902C38.5998 35.7272 38.3316 36 38.0002 36H26.0001C25.6687 36 25.4004 35.7272 25.4004 35.3902C25.4004 35.0532 25.6687 34.7804 26.0001 34.7804H38.0002Z" fill="currentColor"/>
<path d="M33.0499 15.2773C32.5177 15.4907 32.1234 15.8467 31.8653 16.2715H23C22.5582 16.2715 22.2002 16.6355 22.2002 17.0848V30.3054C22.2002 30.7547 22.5582 31.1188 23 31.1188H41.0002C41.442 31.1188 41.8 30.7547 41.8 30.3054V20.7703L43.0002 20.2897V30.3054C43.0002 31.3586 42.213 32.2244 41.2043 32.3284L41.0002 32.3393H23L22.7959 32.3284C21.8544 32.2313 21.1062 31.4705 21.0107 30.513L21 30.3054V17.0848C21 15.9615 21.8954 15.0509 23 15.0509H33.6144L33.0499 15.2773Z" fill="currentColor"/>
<path fill-rule="evenodd" clip-rule="evenodd" d="M37.6867 12.4668C38.0719 11.7998 39.0854 11.8477 39.3811 12.6098L40.5178 15.5405L43.4006 16.6975C44.1998 17.0182 44.1998 18.1684 43.4006 18.4891L40.5178 19.6451L39.3811 22.5768C39.0657 23.3897 37.9346 23.3897 37.6193 22.5768L36.4816 19.6451L33.5997 18.4891C32.8004 18.1684 32.8004 17.0182 33.5997 16.6975L36.4816 15.5405L37.6193 12.6098L37.6867 12.4668ZM37.4045 15.9358C37.3567 16.0588 37.2846 16.1711 37.1926 16.2645C37.1234 16.3346 37.0436 16.393 36.9572 16.4383L36.8693 16.479L34.09 17.5923L36.8703 18.7076L36.9592 18.7493C37.0167 18.7797 37.071 18.8159 37.1213 18.8576L37.1935 18.9231L37.258 18.9976C37.3191 19.0742 37.3689 19.1597 37.4045 19.2518L38.4992 22.0773L39.5959 19.2508L39.6369 19.1605C39.6816 19.0729 39.7389 18.9921 39.8078 18.9221C39.8998 18.8288 40.0102 18.7559 40.1311 18.7076L42.9094 17.5933L40.1301 16.479C40.0091 16.4305 39.8987 16.3571 39.8068 16.2635C39.7379 16.1932 39.6805 16.1121 39.6359 16.0242L39.5959 15.9348L38.5002 13.1083L37.4045 15.9358Z" fill="currentColor"/>
</svg>
