<svg xmlns="http://www.w3.org/2000/svg" width="24" height="24" viewBox="0 0 24 24" fill="none">
  <circle cx="12" cy="12" r="12" fill="#E60023"/>
  <path d="M12 5.5C8.41 5.5 5.5 8.41 5.5 12C5.5 14.69 7.13 17.01 9.47 18.02C9.43 17.55 9.39 16.83 9.49 16.31C9.58 15.84 10.07 13.72 10.07 13.72C10.07 13.72 9.93 13.35 9.93 12.8C9.93 11.95 10.42 11.32 11.03 11.32C11.55 11.32 11.8 11.71 11.8 12.18C11.8 12.71 11.46 13.49 11.29 14.22C11.14 14.82 11.59 15.32 12.18 15.32C13.25 15.32 14.07 14.2 14.07 12.58C14.07 11.15 13.04 10.14 11.97 10.14C10.72 10.14 9.99 11.07 9.99 12.04C9.99 12.56 10.19 13.11 10.44 13.41C10.48 13.46 10.49 13.51 10.47 13.56L10.33 14.12C10.3 14.24 10.23 14.27 10.11 14.21C9.37 13.87 8.89 12.81 8.89 12.01C8.89 10.13 10.27 8.41 12.13 8.41C13.63 8.41 14.81 9.49 14.81 10.95C14.81 12.44 13.88 13.64 12.58 13.64C12.16 13.64 11.77 13.42 11.63 13.16L11.34 14.3C11.23 14.74 10.93 15.3 10.72 15.64C11.13 15.76 11.56 15.83 12 15.83C14.69 15.83 16.5 14.02 16.5 12C16.5 8.41 15.59 5.5 12 5.5Z" fill="white"/>
</svg>
