<svg xmlns="http://www.w3.org/2000/svg" width="20" height="20" viewBox="0 0 20 20" fill="none">
  <circle cx="10" cy="10" r="10" fill="#FF4500"/>
  <path d="M16.5 10c0-.8-.7-1.5-1.5-1.5-.4 0-.8.2-1 .4-1-.7-2.4-1.1-3.9-1.2l.7-3.1 2.2.5c0 .6.5 1.1 1.1 1.1.6 0 1.1-.5 1.1-1.1s-.5-1.1-1.1-1.1c-.4 0-.8.3-1 .6l-2.4-.5c-.1 0-.3.1-.3.2l-.7 3.4c-1.6.1-3 .5-4 1.2-.3-.3-.6-.4-1-.4-.8 0-1.5.7-1.5 1.5 0 .6.3 1.1.8 1.3 0 .2 0 .4 0 .5 0 2.7 3.1 4.8 7 4.8s7-2.2 7-4.8c0-.2 0-.4 0-.5.5-.3.8-.8.8-1.3zM7 11.5c0-.6.5-1.1 1.1-1.1.6 0 1.1.5 1.1 1.1s-.5 1.1-1.1 1.1c-.6 0-1.1-.5-1.1-1.1zm6.1 3.1c-.7.7-2 1.1-3.1 1.1s-2.4-.3-3.1-1.1c-.1-.1-.1-.3 0-.4.1-.1.3-.1.4 0 .6.6 1.7.9 2.7.9s2.1-.3 2.7-.9c.1-.1.3-.1.4 0 .1.1.1.3 0 .4zm-.2-2c-.6 0-1.1-.5-1.1-1.1s.5-1.1 1.1-1.1c.6 0 1.1.5 1.1 1.1s-.5 1.1-1.1 1.1z" fill="white"/>
</svg>
