<svg xmlns="http://www.w3.org/2000/svg" width="24" height="24" viewBox="0 0 24 24" fill="none">
  <rect width="24" height="24" rx="4" fill="#FFFC00"/>
  <path d="M12 6C10.5 6 9 7 9 9.5V11C8.5 11 7.5 11.2 7.5 11.8C7.5 12.4 8.5 12.5 9 12.5C8.5 13.5 7.5 14.5 6.5 15C6 15.2 6 15.8 7 16C7.5 16.1 8 16 8.5 16.2C9 16.5 9.5 17.5 12 17.5C14.5 17.5 15 16.5 15.5 16.2C16 16 16.5 16.1 17 16C18 15.8 18 15.2 17.5 15C16.5 14.5 15.5 13.5 15 12.5C15.5 12.5 16.5 12.4 16.5 11.8C16.5 11.2 15.5 11 15 11V9.5C15 7 13.5 6 12 6Z" fill="#333"/>
</svg>
