<svg xmlns="http://www.w3.org/2000/svg" width="24" height="24" viewBox="0 0 24 24" fill="none">
  <rect width="24" height="24" rx="4" fill="#FF0000"/>
  <path d="M18.54 8.84C18.4 8.28 17.97 7.84 17.42 7.7C16.42 7.44 12 7.44 12 7.44C12 7.44 7.58 7.44 6.58 7.7C6.03 7.84 5.6 8.28 5.46 8.84C5.2 9.84 5.2 12 5.2 12C5.2 12 5.2 14.16 5.46 15.16C5.6 15.72 6.03 16.16 6.58 16.3C7.58 16.56 12 16.56 12 16.56C12 16.56 16.42 16.56 17.42 16.3C17.97 16.16 18.4 15.72 18.54 15.16C18.8 14.16 18.8 12 18.8 12C18.8 12 18.8 9.84 18.54 8.84Z" fill="white"/>
  <path d="M10.5 14.22V9.78L14.5 12L10.5 14.22Z" fill="#FF0000"/>
</svg>
