<?xml version="1.0" encoding="utf-8"?>
<!-- Generator: Adobe Illustrator 24.2.3, SVG Export Plug-In . SVG Version: 6.00 Build 0)  -->
<svg version="1.1" id="Layer_1" xmlns="http://www.w3.org/2000/svg" xmlns:xlink="http://www.w3.org/1999/xlink" x="0px" y="0px"
	 viewBox="680 320 560 440" style="enable-background:new 0 0 1920 1080;" xml:space="preserve">
<style type="text/css">
	.st0{fill:url(#SVGID_1_);}
	.st1{opacity:0.4;fill:url(#SVGID_2_);}
	.st2{opacity:0.4;fill:url(#SVGID_3_);}
	.st3{fill:url(#SVGID_4_);}
</style>
<g>
	<linearGradient id="SVGID_1_" gradientUnits="userSpaceOnUse" x1="871.5266" y1="627.9478" x2="1024.1337" y2="363.6246">
		<stop  offset="0" style="stop-color:#8855FF"/>
		<stop  offset="1" style="stop-color:#00B6FF"/>
	</linearGradient>
	<path class="st0" d="M973.8,670.3l181.9-181.9c7.6-7.6,7.6-19.9,0-27.5l-47.8-47.8c-5.9-5.9-13.9-9.2-22.2-9.2H834.4
		c-8.3,0-16.3,3.3-22.2,9.2L764.4,461c-7.6,7.6-7.6,19.9,0,27.5l181.9,181.9C953.8,677.9,966.2,677.9,973.8,670.3z"/>
	<linearGradient id="SVGID_2_" gradientUnits="userSpaceOnUse" x1="983.2714" y1="457.2772" x2="1011.0757" y2="342.495">
		<stop  offset="7.095725e-02" style="stop-color:#FFFFFF"/>
		<stop  offset="0.8864" style="stop-color:#009FFF"/>
	</linearGradient>
	<path class="st1" d="M810.8,414.5c6.6-6.6,16-9.4,25.1-7.6l315.8,64.2c6.3,1.3,9.3,8,6.9,13.3c4.3-7.4,3.3-17.1-3.1-23.5
		l-47.8-47.8c-5.9-5.9-13.9-9.2-22.2-9.2H834.4c-8.3,0-16.3,3.3-22.2,9.2L810.8,414.5z"/>
	<linearGradient id="SVGID_3_" gradientUnits="userSpaceOnUse" x1="1090.4948" y1="470.2342" x2="1187.4126" y2="387.3731">
		<stop  offset="7.095725e-02" style="stop-color:#FFFFFF"/>
		<stop  offset="0.8864" style="stop-color:#009FFF"/>
	</linearGradient>
	<path class="st2" d="M1091.8,417.8l-18.5,37.4l78.5,15.9c6.3,1.3,9.3,8,6.9,13.3c4.3-7.4,3.3-17.1-3.1-23.5l-47.8-47.8
		c-5.9-5.9-13.9-9.2-22.2-9.2h-2.4C1090.3,404,1094.9,411.5,1091.8,417.8z"/>
	<linearGradient id="SVGID_4_" gradientUnits="userSpaceOnUse" x1="964.1196" y1="542.3273" x2="1115.957" y2="594.8864">
		<stop  offset="0" style="stop-color:#4036C1"/>
		<stop  offset="0.9809" style="stop-color:#539EFF"/>
	</linearGradient>
	<path class="st3" d="M1158.7,484.4c2.3-5.3-0.6-12-6.9-13.3l-78.5-15.9L968,667.9c-2.9,6-9.6,8.4-15.4,6.6c7,2.9,15.5,1.5,21.2-4.2
		l181.9-181.9C1156.8,487.2,1157.8,485.9,1158.7,484.4L1158.7,484.4z"/>
</g>
</svg>
